<svg width="150" height="150" viewBox="0 0 150 150" fill="none" xmlns="http://www.w3.org/2000/svg">
<path d="M117.825 99.075L91.875 73.125L101.85 63.15L86.85 48.15L76.875 58.125L50.925 32.175C48 29.25 43.2 29.25 40.275 32.175L32.175 40.275C29.25 43.2 29.25 48 32.175 50.925L58.125 76.875L30 105V120H45L73.125 91.875L99.075 117.825C102 120.75 106.725 120.75 109.65 117.825L117.75 109.725C120.75 106.8 120.75 102 117.825 99.075ZM37.5 45.6L45.6 37.5L50.775 42.675L46.725 46.725L51.675 51.75L55.725 47.7L63.675 55.65L59.625 59.7L64.65 64.725L68.7 60.675L71.55 63.525L63.45 71.55L37.5 45.6ZM41.925 112.5H37.5V108.075L86.85 58.725L91.275 63.15L41.925 112.5ZM104.4 112.5L78.45 86.55L86.55 78.45L89.55 81.45L85.5 85.5L90.525 90.5249L94.575 86.475L102.525 94.425L98.475 98.475L103.5 103.5L107.55 99.45L112.5 104.4L104.4 112.5Z" fill="url(#paint0_linear)"/>
<path d="M117.15 47.85C118.65 46.35 118.65 44.025 117.15 42.525L107.475 32.85C105.975 31.35 103.65 31.35 102.15 32.85L92.0999 42.9L107.1 57.9L117.15 47.85Z" fill="url(#paint1_linear)"/>
<defs>
<linearGradient id="paint0_linear" x1="74.9953" y1="29.9812" x2="74.9953" y2="120.019" gradientUnits="userSpaceOnUse">
<stop stop-color="#EF4444"/>
<stop offset="1" stop-color="#EC4899"/>
</linearGradient>
<linearGradient id="paint1_linear" x1="105.187" y1="31.725" x2="105.187" y2="57.9" gradientUnits="userSpaceOnUse">
<stop stop-color="#EF4444"/>
<stop offset="1" stop-color="#EC4899"/>
</linearGradient>
</defs>
</svg>
