<svg width="150" height="150" viewBox="0 0 150 150" fill="none" xmlns="http://www.w3.org/2000/svg">
<path d="M93.0372 85.2327H88.9268L87.47 83.8279C92.5689 77.8965 95.6387 70.1961 95.6387 61.8193C95.6387 43.1407 80.498 28 61.8193 28C43.1407 28 28 43.1407 28 61.8193C28 80.498 43.1407 95.6387 61.8193 95.6387C70.1961 95.6387 77.8965 92.5689 83.8279 87.47L85.2327 88.9268V93.0372L111.248 119L119 111.248L93.0372 85.2327V85.2327ZM61.8193 85.2327C48.8639 85.2327 38.4059 74.7747 38.4059 61.8193C38.4059 48.8639 48.8639 38.4059 61.8193 38.4059C74.7747 38.4059 85.2327 48.8639 85.2327 61.8193C85.2327 74.7747 74.7747 85.2327 61.8193 85.2327Z" fill="url(#paint0_linear)"/>
<defs>
<linearGradient id="paint0_linear" x1="73.5" y1="28" x2="73.5" y2="119" gradientUnits="userSpaceOnUse">
<stop stop-color="#3B82F6"/>
<stop offset="1" stop-color="#8B5CF6"/>
</linearGradient>
</defs>
</svg>
